<svg xmlns="http://www.w3.org/2000/svg" version="1.1" xmlns:xlink="http://www.w3.org/1999/xlink" xmlns:svgjs="http://svgjs.dev/svgjs" width="100%" height="100%" viewBox="0 0 1000 600"><rect width="1000" height="600" x="0" y="0" fill="#ffe8f5"/><g><rect width="333.3333333333333" height="333.3333333333333" rx="13.333333333333334" ry="13.333333333333334" y="178.03190022957324" fill="#8000ff" transform="matrix(0.8022608504670126,0,0,0.8022608504670128,0,23.461835676973408)" x="155.80970764160156"/><path d="M318.31849904562716 402.29016694242944L318.31849904562716 402.29016694242944Q349.8262674389913 402.29016694242944 349.8262674389913 380.73827787701407L349.8262674389913 380.73827787701407Q349.8262674389913 374.12020780352213 347.0351683210403 369.4587845343668Q344.2152949853785 364.79736126521163 339.46754906309076 361.3732293576222Q334.6910289230922 357.9490974500329 328.5908947683952 355.47451472690113Q322.46198639598737 352.99993200376935 315.6424967985195 350.4965750629267L315.6424967985195 350.4965750629267Q307.75836114575077 347.8205728158191 300.70867780659626 344.3964409082297Q293.68776868515255 340.9723090006404 288.50840949720225 336.3108857314851Q283.329050309252 331.6494624623299 280.3077574496143 325.23281191281376Q277.31523880768754 318.8161613632975 277.31523880768754 309.69473434896287L277.31523880768754 309.69473434896287Q277.31523880768754 290.847621748366 290.14853990671986 280.25870963077887Q303.01061522346305 269.6985717309025 325.56960190875753 269.6985717309025L325.56960190875753 269.6985717309025Q338.6330967494765 269.6985717309025 349.30833152019625 272.48967084885345Q359.983566290916 275.30954418451523 364.93273173717955 278.61857922126126L364.93273173717955 278.61857922126126L358.5160811876634 294.99110909872627Q354.17117431332736 292.2863326339078 345.56768321778776 289.6966530399327Q336.9641921222481 287.1069734459575 325.56960190875753 287.1069734459575L325.56960190875753 287.1069734459575Q319.7859841488797 287.1069734459575 314.8080444849053 288.3442648075234Q309.8301048209309 289.5815561690893 306.11823073623316 292.08491310993196Q302.37758243382467 294.55949583306375 300.1907418878012 298.3864667886048Q298.0326755594886 302.24221196185664 298.0326755594886 307.42157114980694L298.0326755594886 307.42157114980694Q298.0326755594886 313.2051889096848 300.30583875864454 317.14725673606915Q302.57900195780053 321.0893245624535 306.72248930816073 324.08184320438033Q310.86597665852094 327.10313606401803 316.36185224129036 329.5777187871498Q321.85772782405985 332.0523015102816 328.47579789755184 334.55565845112415L328.47579789755184 334.55565845112415Q337.79864443586234 338.26753253582194 345.56768321778776 342.0081808382304Q353.3367219997131 345.7488291406389 359.03401710645846 350.9281883285893Q364.7313122132037 356.1075475165395 367.8389277259739 363.2435535088265Q370.9465432387441 370.3795595011136 370.9465432387441 380.53685835303827L370.9465432387441 380.53685835303827Q370.9465432387441 399.38397095363507 357.1636929552542 409.54126980555975Q343.4096168894751 419.69856865748443 318.31849904562716 419.69856865748443L318.31849904562716 419.69856865748443Q309.8301048209309 419.69856865748443 302.69409882864386 418.5475999490511Q295.52931861864596 417.42540545832856 289.947120382744 415.8715977019434Q284.36492214684205 414.3177899455584 280.3077574496143 412.56256266519745Q276.2793669700975 410.77856116712564 274.0062037709415 409.54126980555975L274.0062037709415 409.54126980555975L279.9912410547952 392.96732040411894Q284.76776119479376 395.6720968689374 294.4934467810559 398.98113190568336Q304.24790658502894 402.29016694242944 318.31849904562716 402.29016694242944Z " fill="#ffe8f5" transform="matrix(0.8022608504670126,0,0,0.8022608504670128,0,23.461835676973408)"/><path d="M613.0104860217872 404.6800634656395L613.0104860217872 404.6800634656395Q619.3034527568602 404.6800634656395 624.1421624733239 404.38921206191753Q629.0073132264895 404.0983606581957 632.233119704132 403.331570593838L632.233119704132 403.331570593838L632.233119704132 373.82337363442014Q630.329365061589 372.87149631314855 626.045917115867 372.2104703955989Q621.7624691701451 371.54944447804917 615.6810307286879 371.54944447804917L615.6810307286879 371.54944447804917Q611.6884341866878 371.54944447804917 607.219898984052 372.1047062487909Q602.7249227447141 372.68640905623465 599.0231776064359 374.4843995519698Q595.3214324681576 376.30883108440696 592.8359750181708 379.4553144519434Q590.3505175681839 382.57535678277793 590.3505175681839 387.7313589396655L590.3505175681839 387.7313589396655Q590.3505175681839 397.25013215238096 596.4583970463431 400.95187729065924Q602.5398354878002 404.6800634656395 613.0104860217872 404.6800634656395ZM611.5033469297739 315.9439442937696L611.5033469297739 315.9439442937696Q622.1590847206749 315.9439442937696 629.4832518871253 318.7202531474784Q636.8074190535758 321.470120964485 641.2759542562117 326.5203589745646Q645.7709304955496 331.5705969846442 647.6746851380926 338.5245896372669Q649.5784397806358 345.4521412531876 649.5784397806358 353.8339498877176L649.5784397806358 353.8339498877176L649.5784397806358 415.70597577036824Q647.2780695875629 416.102591320898 643.1797088987548 416.76361723844764Q639.1077892466487 417.4246431559974 633.9517870897612 418.00634596344105Q628.8222259695756 418.56160773418287 622.8201106382245 419.0375463948186Q616.8179953068734 419.51348505545434 610.9216441223302 419.51348505545434L610.9216441223302 419.51348505545434Q602.5398354878002 419.51348505545434 595.5065197250715 417.7948176698252Q588.4467629256409 416.102591320898 583.3172018054554 412.37440514591776Q578.1876406852698 408.6726600076395 575.3320087214552 402.56478052948046Q572.4763767576405 396.4833420880233 572.4763767576405 387.9164461965794L572.4763767576405 387.9164461965794Q572.4763767576405 379.7197248189633 575.8079473820909 373.82337363442014Q579.1395180065413 367.927022449877 584.8507819341705 364.30460042170466Q590.5620458617998 360.68217839353235 598.1770644319722 358.98995204460516Q605.7920830021446 357.271284658976 614.1474505999727 357.271284658976L614.1474505999727 357.271284658976Q616.8179953068734 357.271284658976 619.673627270688 357.56213606269785Q622.5292592345027 357.8265464297177 625.0940397945953 358.30248509035346Q627.6852613913902 358.7784237509893 629.5890160339333 359.17503930151906Q631.4927706764763 359.54521381534687 632.233119704132 359.7303010722608L632.233119704132 359.7303010722608L632.233119704132 354.7858272089892Q632.233119704132 350.42305615316127 631.2812423828605 346.1396082074393Q630.329365061589 341.8561602617174 627.8703486483041 338.5245896372669Q625.3848911983173 335.19301901281653 621.1014432525953 333.18350022346544Q616.8179953068734 331.17398143411447 609.9697668010585 331.17398143411447L609.9697668010585 331.17398143411447Q601.2177836527007 331.17398143411447 594.6339655139059 332.41671015910777Q588.076588411813 333.6594388841012 584.8507819341705 334.98149071920056L584.8507819341705 334.98149071920056L582.7354989980115 320.3331563862996Q586.17283376927 318.79957625758436 594.1580268532701 317.37176027567693Q602.1696609739723 315.9439442937696 611.5033469297739 315.9439442937696ZM678.8751084464379 417.4246431559974L678.8751084464379 321.2850337075711Q684.982987924597 319.75145357885583 694.9776997979482 318.05922722992864Q704.9724116712994 316.3405598442995 718.1136069121872 316.3405598442995L718.1136069121872 316.3405598442995Q727.6323801249027 316.3405598442995 734.0839930801876 318.9053404043923Q740.5620470721744 321.470120964485 744.9512591647044 326.4145948277567L744.9512591647044 326.4145948277567Q746.2733109998037 325.4627175064851 749.1289429636183 323.7704911575579Q751.984574927433 322.05182377192875 756.188699763049 320.43892053310753Q760.366383561963 318.79957625758436 765.4959446821485 317.5832885692929Q770.6519468390361 316.3405598442995 776.5482980235793 316.3405598442995L776.5482980235793 316.3405598442995Q787.9708258788378 316.3405598442995 795.2156699351824 319.67213046874986Q802.4340729548251 323.00370109320033 806.5324336436331 329.0851395346574Q810.6307943324412 335.19301901281653 812.0586103143485 343.54838661064457Q813.4864262962558 351.93019524517456 813.4864262962558 361.8455840084198L813.4864262962558 361.8455840084198L813.4864262962558 417.4246431559974L795.7709317059241 417.4246431559974L795.7709317059241 365.653093293506Q795.7709317059241 356.87466910844614 794.9248185314607 350.6081434100752Q794.0522643202951 344.31517667500214 791.6725710171161 340.1374928760881Q789.2928777139373 335.93336804047215 785.2209580618312 333.9502902878231Q781.1225973730232 331.94077149847203 774.6445433810363 331.94077149847203L774.6445433810363 331.94077149847203Q765.7074729757646 331.94077149847203 759.8904449013273 334.3204648016509Q754.07341682689 336.7001581048298 751.984574927433 338.6039127473729L751.984574927433 338.6039127473729Q753.5181550561483 343.54838661064457 754.2849451205059 349.4711788318897Q755.0252941481617 355.36753001643285 755.0252941481617 361.8455840084198L755.0252941481617 361.8455840084198L755.0252941481617 417.4246431559974L737.336240594532 417.4246431559974L737.336240594532 365.653093293506Q737.336240594532 356.87466910844614 736.3843632732605 350.6081434100752Q735.4324859519888 344.31517667500214 733.05279264881 340.1374928760881Q730.6730993456313 335.93336804047215 726.5747386568232 333.9502902878231Q722.4763779680152 331.94077149847203 716.209852269644 331.94077149847203L716.209852269644 331.94077149847203Q713.5393075627433 331.94077149847203 710.4985883420147 332.12585875538593Q707.4314280845842 332.3373870490019 704.6815602675777 332.6017974160218Q701.9316924505708 332.8926488197436 699.6313222574979 333.2892643702734Q697.357393101127 333.6594388841012 696.5906030367694 333.8445261410152L696.5906030367694 333.8445261410152L696.5906030367694 417.4246431559974L678.8751084464379 417.4246431559974ZM921.6038253706822 318.42940174375644L921.6038253706822 414.56901119218276Q915.5223869292254 416.102591320898 905.5276750558739 417.7948176698252Q895.5329631825227 419.51348505545434 882.391767941635 419.51348505545434L882.391767941635 419.51348505545434Q870.9692400863764 419.51348505545434 863.1691342592901 416.181914431004Q855.3690284322038 412.8503438065536 850.6096418258462 406.76890536509643Q845.8502552194884 400.6610258869373 843.7614133200314 392.38498139921523Q841.6461303838723 384.1089369114932 841.6461303838723 374.00846089133404L841.6461303838723 374.00846089133404L841.6461303838723 318.42940174375644L859.361624974204 318.42940174375644L859.361624974204 370.2009516062478Q859.361624974204 388.2866207104072 865.0728889018333 396.1131675741955Q870.7841528294625 403.9132734012818 884.2955225841781 403.9132734012818L884.2955225841781 403.9132734012818Q887.1511545479927 403.9132734012818 890.1918737687213 403.7281861443679Q893.2590340261518 403.51665785075204 895.9031376963505 403.25224748373216Q898.5736824032513 402.9613960800102 900.7682884495164 402.6705446762884Q902.9628944957813 402.37969327256656 903.9147718170527 402.00951875873875L903.9147718170527 402.00951875873875L903.9147718170527 318.42940174375644L921.6038253706822 318.42940174375644ZM946.5641640173585 368.1121097067909L946.5641640173585 368.1121097067909Q946.5641640173585 354.9709144659031 950.3716733024446 345.18773088616774Q954.1791825875309 335.37810626973044 960.4457082859019 328.9000522777435Q966.7386750209748 322.42199828575656 974.908955361889 319.1961918081141Q983.105676739505 315.9439442937696 991.6725726309489 315.9439442937696L991.6725726309489 315.9439442937696Q1011.6619963776513 315.9439442937696 1022.3177341685523 328.42411361710776Q1032.9734719594533 340.9042829404458 1032.9734719594533 366.3934423211616L1032.9734719594533 366.3934423211616Q1032.9734719594533 367.55684793604905 1032.9734719594533 369.3548384317843Q1032.9734719594533 371.1528289275194 1032.7883847025394 372.68640905623465L1032.7883847025394 372.68640905623465L965.0200076353456 372.68640905623465Q966.1569722135312 388.1015334534933 973.9570780406175 396.1131675741955Q981.7836249044058 404.0983606581957 998.3357138798499 404.0983606581957L998.3357138798499 404.0983606581957Q1007.6693998356513 404.0983606581957 1014.0416896808304 402.4854574193745Q1020.4139795260094 400.87255418055327 1023.6662270403538 399.3389740518379L1023.6662270403538 399.3389740518379L1026.1252434536386 414.19883667835495Q1022.8994369759962 415.89106302728214 1014.8084797451879 417.7948176698252Q1006.7175225143799 419.69857231236824 996.4319592373067 419.69857231236824L996.4319592373067 419.69857231236824Q983.4758512533328 419.69857231236824 974.0628421874253 415.81173991717617Q964.6498331215178 411.89846648528203 958.5419536433587 405.0502379794673Q952.4605152019017 398.20200947365254 949.499119091279 388.76255937104304Q946.5641640173585 379.3495503051355 946.5641640173585 368.1121097067909ZM965.3901821491736 358.4082492371615L1014.5176283414662 358.4082492371615Q1014.7027155983801 346.4040185744592 1008.515513010115 338.7096768941808Q1002.3283104218499 330.98889417720045 991.487485374035 330.98889417720045L991.487485374035 330.98889417720045Q985.379605895876 330.98889417720045 980.7259834363263 333.36858748037935Q976.0723609767765 335.74828078355824 972.8201134624319 339.55579006864446Q969.5943069847895 343.36329935373067 967.7698754523524 348.30777321700225Q965.9718849566173 353.2786881169759 965.3901821491736 358.4082492371615L965.3901821491736 358.4082492371615ZM1090.66781404319 404.4685351720235L1088.182356593203 419.32839779854044Q1071.8153548746727 418.95822328471263 1064.967126368858 412.2950820358118Q1058.1188978630435 405.63194078691095 1058.1188978630435 391.5388682247517L1058.1188978630435 391.5388682247517L1058.1188978630435 272.7392903227222L1075.807951416673 269.69857110199365L1075.807951416673 388.68323626093706Q1075.807951416673 393.046007316765 1076.5747414810305 395.9016392805796Q1077.341531545388 398.75727124439425 1079.0601989310173 400.4759386300235Q1080.7788663166466 402.19460601565265 1083.6344982804612 403.0407191901162Q1086.4901302442759 403.9132734012818 1090.66781404319 404.4685351720235L1090.66781404319 404.4685351720235Z " fill="#8000ff" transform="matrix(0.8022608504670126,0,0,0.8022608504670128,0,23.461835676973408)"/></g></svg>